HIERARCHY
ROOT lpalm
{
	OFFSET	0.000000	0.000000	0.000000
	CHANNELS	6	Xposition	Yposition	Zposition	Zrotation	Xrotation	Yrotation
	JOINT lthumbA
	{
		OFFSET	-2.700000	-3.000000	0.000000
		CHANNELS	3	Zrotation	Xrotation	Yrotation
		JOINT lthumbB
		{
			OFFSET	0.000000	0.000000	7.000000
			CHANNELS	3	Zrotation	Xrotation	Yrotation
			JOINT lthumbC
			{
				OFFSET	0.000000	0.000000	4.000000
				CHANNELS	3	Zrotation	Xrotation	Yrotation
				End Site
				{
					OFFSET	0.000000	0.000000	3.000000
				}
			}
		}
	}
	JOINT lindexA
	{
		OFFSET	-2.700000	0.000000	11.500000
		CHANNELS	3	Zrotation	Xrotation	Yrotation
		JOINT lindexB
		{
			OFFSET	0.000000	0.000000	4.900000
			CHANNELS	3	Zrotation	Xrotation	Yrotation
			JOINT lindexC
			{
				OFFSET	0.000000	0.000000	3.000000
				CHANNELS	3	Zrotation	Xrotation	Yrotation
				End Site
				{
					OFFSET	0.000000	0.000000	2.200000
				}
			}
		}
	}
	JOINT lmiddleA
	{
		OFFSET	-0.600000	0.000000	11.000000
		CHANNELS	3	Zrotation	Xrotation	Yrotation
		JOINT lmiddleB
		{
			OFFSET	0.000000	0.000000	5.500000
			CHANNELS	3	Zrotation	Xrotation	Yrotation
			JOINT lmiddleC
			{
				OFFSET	0.000000	0.000000	3.800000
				CHANNELS	3	Zrotation	Xrotation	Yrotation
				End Site
				{
					OFFSET	0.000000	0.000000	2.400000
				}
			}
		}
	}
	JOINT lringA
	{
		OFFSET	1.900000	0.000000	10.500000
		CHANNELS	3	Zrotation	Xrotation	Yrotation
		JOINT lringB
		{
			OFFSET	0.000000	0.000000	5.300000
			CHANNELS	3	Zrotation	Xrotation	Yrotation
			JOINT lringC
			{
				OFFSET	0.000000	0.000000	3.700000
				CHANNELS	3	Zrotation	Xrotation	Yrotation
				End Site
				{
					OFFSET	0.000000	0.000000	2.400000
				}
			}
		}
	}
	JOINT llittleA
	{
		OFFSET	3.500000	0.000000	9.300000
		CHANNELS	3	Zrotation	Xrotation	Yrotation
		JOINT llittleB
		{
			OFFSET	0.000000	0.000000	4.300000
			CHANNELS	3	Zrotation	Xrotation	Yrotation
			JOINT llittleC
			{
				OFFSET	0.000000	0.000000	2.500000
				CHANNELS	3	Zrotation	Xrotation	Yrotation
				End Site
				{
					OFFSET	0.000000	0.000000	2.000000
				}
			}
		}
	}
}
MOTION
Frames:	18
Frame Time:	0.013305
0.00	0.00	0.00	0.00	0.01	-0.03	-0.74	-0.37	-33.48	-12.62	-8.17	32.39	0.00	0.00	-0.01	0.00	-0.02	-0.24	0.00	0.26	0.00	0.00	0.00	0.00	0.00	0.16	0.08	0.00	0.13	0.00	0.00	0.00	0.00	0.00	0.10	0.02	0.00	0.00	0.00	0.00	0.10	0.00	0.00	0.97	0.14	0.00	0.07	0.00	0.00	0.00	0.00
0.00	0.00	0.00	0.00	0.01	-0.04	-0.75	-0.37	-33.48	-12.62	-8.17	32.39	0.00	0.00	-0.01	0.00	-0.02	-0.23	0.00	0.26	0.00	0.00	0.00	0.00	0.00	0.15	0.08	0.00	0.13	0.00	0.00	0.00	0.00	0.00	0.10	0.02	0.00	0.00	0.00	0.00	0.11	0.00	0.00	0.97	0.13	0.00	0.06	0.00	0.00	0.00	0.00
0.00	0.00	0.00	0.00	0.01	-0.03	-0.73	-0.36	-33.48	-12.62	-8.17	32.39	0.00	0.00	-0.01	0.00	-0.03	-0.22	0.00	0.26	0.00	0.00	0.00	0.00	0.00	0.15	0.08	0.00	0.13	0.00	0.00	0.00	0.00	0.00	0.10	0.02	0.00	0.00	0.00	0.00	0.10	0.00	0.00	0.98	0.13	0.00	0.06	0.00	0.00	0.00	0.00
0.00	0.00	0.00	0.00	0.01	-0.04	-0.70	-0.35	-33.46	-12.62	-8.17	32.38	0.00	0.00	-0.01	0.00	-0.03	-0.21	0.00	0.25	0.00	0.00	0.00	0.00	0.00	0.14	0.08	0.00	0.13	0.00	0.00	0.00	0.00	0.00	0.09	0.01	0.00	0.00	0.00	0.00	0.09	0.00	0.00	0.98	0.12	0.00	0.05	0.00	0.00	0.00	0.00
0.00	0.00	0.00	0.00	0.01	-0.04	-0.70	-0.35	-33.46	-12.62	-8.17	32.38	0.00	0.00	-0.01	0.00	-0.03	-0.21	0.00	0.25	0.00	0.00	0.00	0.00	0.00	0.14	0.08	0.00	0.13	0.00	0.00	0.00	0.00	0.00	0.09	0.01	0.00	0.00	0.00	0.00	0.09	0.00	0.00	0.98	0.12	0.00	0.05	0.00	0.00	0.00	0.00
0.00	0.00	0.00	0.00	0.01	-0.03	-0.69	-0.34	-33.46	-12.63	-8.17	32.38	0.00	0.00	-0.01	0.00	-0.03	-0.21	0.00	0.24	0.00	0.00	0.00	0.00	0.00	0.13	0.08	0.00	0.13	0.00	0.00	0.00	0.00	0.00	0.09	0.01	0.00	0.00	0.00	0.00	0.09	0.00	0.00	0.99	0.12	0.00	0.06	0.00	0.00	0.00	0.00
0.00	0.00	0.00	0.00	0.01	-0.03	-0.69	-0.34	-33.45	-12.63	-8.17	32.38	0.00	0.00	-0.01	0.00	-0.03	-0.20	0.00	0.24	0.00	0.00	0.00	0.00	0.00	0.14	0.08	0.00	0.13	0.00	0.00	0.00	0.00	0.00	0.09	0.01	0.00	0.00	0.00	0.00	0.09	0.00	0.00	0.99	0.12	0.00	0.06	0.00	0.00	0.00	0.00
0.00	0.00	0.00	0.00	0.01	-0.04	-0.71	-0.35	-33.47	-12.63	-8.17	32.38	0.00	0.00	-0.01	0.00	-0.03	-0.20	0.00	0.24	0.00	0.00	0.00	0.00	0.00	0.14	0.08	0.00	0.13	0.00	0.00	0.00	0.00	0.00	0.09	0.01	0.00	0.00	0.00	0.00	0.09	0.00	0.00	0.99	0.12	0.00	0.06	0.00	0.00	0.00	0.00
0.00	0.00	0.00	0.00	0.01	-0.04	-0.71	-0.35	-33.48	-12.63	-8.17	32.38	0.00	0.00	-0.01	0.00	-0.03	-0.21	0.00	0.24	0.00	0.00	0.00	0.00	0.00	0.14	0.08	0.00	0.13	0.00	0.00	0.00	0.00	0.00	0.10	0.01	0.00	0.00	0.00	0.00	0.09	0.00	0.00	0.98	0.12	0.00	0.06	0.00	0.00	0.00	0.00
0.00	0.00	0.00	0.00	0.01	-0.03	-0.73	-0.36	-33.50	-12.62	-8.17	32.38	0.00	0.00	-0.02	0.00	-0.03	-0.20	0.00	0.24	0.00	0.00	0.00	0.00	0.00	0.15	0.08	0.00	0.13	0.00	0.00	0.00	0.00	0.00	0.09	0.01	0.00	0.00	0.00	0.00	0.09	0.00	0.00	0.98	0.12	0.00	0.06	0.00	0.00	0.00	0.00
0.00	0.00	0.00	0.00	0.01	-0.03	-0.73	-0.36	-33.49	-12.62	-8.17	32.39	0.00	0.00	-0.02	0.00	-0.03	-0.20	0.00	0.24	0.00	0.00	0.00	0.00	0.00	0.15	0.08	0.00	0.13	0.00	0.00	0.00	0.00	0.00	0.09	0.01	0.00	0.00	0.00	0.00	0.10	0.00	0.00	0.97	0.12	0.00	0.06	0.00	0.00	0.00	0.00
0.00	0.00	0.00	0.00	0.01	-0.04	-0.73	-0.36	-33.49	-12.62	-8.17	32.38	0.00	0.00	-0.03	0.00	-0.03	-0.20	0.00	0.24	0.00	0.00	0.00	0.00	0.00	0.15	0.08	0.00	0.13	0.00	0.00	0.00	0.00	0.00	0.09	0.01	0.00	0.00	0.00	0.00	0.09	0.00	0.00	0.97	0.12	0.00	0.07	0.00	0.00	0.00	0.00
0.00	0.00	0.00	0.00	0.01	-0.03	-0.72	-0.36	-33.48	-12.62	-8.17	32.39	0.00	0.00	-0.02	0.00	-0.03	-0.20	0.00	0.26	0.00	0.00	0.00	0.00	0.00	0.15	0.09	0.00	0.13	0.00	0.00	0.00	0.00	0.00	0.10	0.00	0.00	0.00	0.00	0.00	0.09	0.00	0.00	0.96	0.12	0.00	0.07	0.00	0.00	0.00	0.00
0.00	0.00	0.00	0.00	0.01	-0.03	-0.73	-0.36	-33.48	-12.62	-8.17	32.39	0.00	0.00	-0.02	0.00	-0.03	-0.21	0.00	0.26	0.00	0.00	0.00	0.00	0.00	0.14	0.09	0.00	0.13	0.00	0.00	0.00	0.00	0.00	0.10	0.00	0.00	0.00	0.00	0.00	0.09	0.00	0.00	0.97	0.12	0.00	0.07	0.00	0.00	0.00	0.00
0.00	0.00	0.00	0.00	0.00	-0.03	-0.74	-0.36	-33.48	-12.62	-8.17	32.39	0.00	0.00	-0.01	0.00	-0.03	-0.21	0.00	0.28	0.00	0.00	0.00	0.00	0.00	0.15	0.10	0.00	0.14	0.00	0.00	0.00	0.00	0.00	0.11	0.00	0.00	0.00	0.00	0.00	0.09	0.00	0.00	0.97	0.12	0.00	0.07	0.00	0.00	0.00	0.00
0.00	0.00	0.00	0.00	0.00	-0.03	-0.72	-0.36	-33.48	-12.62	-8.17	32.39	0.00	0.00	-0.01	0.00	-0.03	-0.22	0.00	0.28	0.00	0.00	0.00	0.00	0.00	0.15	0.10	0.00	0.14	0.00	0.00	0.00	0.00	0.00	0.10	0.00	0.00	0.00	0.00	0.00	0.08	0.00	0.00	0.97	0.12	0.00	0.08	0.00	0.00	0.00	0.00
0.00	0.00	0.00	0.00	0.00	-0.03	-0.70	-0.35	-33.47	-12.62	-8.17	32.39	0.00	0.00	-0.01	0.00	-0.02	-0.23	0.00	0.28	0.00	0.00	0.00	0.00	0.00	0.15	0.10	0.00	0.14	0.00	0.00	0.00	0.00	0.00	0.10	0.01	0.00	0.00	0.00	0.00	0.08	0.00	0.00	0.98	0.13	0.00	0.07	0.00	0.00	0.00	0.00
0.00	0.00	0.00	0.00	0.00	-0.03	-0.70	-0.34	-33.48	-12.62	-8.17	32.38	0.00	0.00	0.00	0.00	-0.01	-0.22	0.00	0.28	0.00	0.00	0.00	0.00	0.00	0.14	0.09	0.00	0.14	0.00	0.00	0.00	0.00	0.00	0.10	0.01	0.00	0.00	0.00	0.00	0.08	0.00	0.00	0.99	0.12	0.00	0.07	0.00	0.00	0.00	0.00
